<svg xmlns="http://www.w3.org/2000/svg" viewBox="0 0 56.5 56.5"><defs><style>.cls-1{fill:#fff;}</style></defs><title>about_icon</title><g id="Layer_2" data-name="Layer 2"><g id="Header"><g id="header-nav"><g id="_1" data-name="1"><g id="settings"><path class="cls-1" d="M53.66,22.39,48.25,21.3A21.33,21.33,0,0,0,47.3,19l3.06-4.6A3.53,3.53,0,0,0,49.92,10l-3.4-3.4a3.53,3.53,0,0,0-4.46-.44L37.47,9.2a21.29,21.29,0,0,0-2.28-.95L34.11,2.84A3.53,3.53,0,0,0,30.65,0h-4.8a3.53,3.53,0,0,0-3.46,2.84L21.3,8.25A21.3,21.3,0,0,0,19,9.2l-4.6-3.06A3.53,3.53,0,0,0,10,6.58L6.58,10a3.53,3.53,0,0,0-.44,4.46L9.2,19a21.11,21.11,0,0,0-.95,2.28L2.84,22.39A3.53,3.53,0,0,0,0,25.85v4.8a3.53,3.53,0,0,0,2.84,3.46L8.25,35.2a21.32,21.32,0,0,0,.95,2.28l-3.06,4.6a3.53,3.53,0,0,0,.44,4.45l3.4,3.4a3.53,3.53,0,0,0,4.46.44L19,47.3a21.19,21.19,0,0,0,2.28.95l1.08,5.41a3.53,3.53,0,0,0,3.46,2.84h4.8a3.53,3.53,0,0,0,3.46-2.84l1.08-5.41a21.3,21.3,0,0,0,2.28-.95l4.6,3.06a3.53,3.53,0,0,0,4.46-.44l3.4-3.4a3.53,3.53,0,0,0,.44-4.45l-3.06-4.6a21.2,21.2,0,0,0,.95-2.28l5.41-1.08a3.53,3.53,0,0,0,2.84-3.46v-4.8A3.53,3.53,0,0,0,53.66,22.39Zm-6.11,9.35A3.53,3.53,0,0,0,44.91,34a17.67,17.67,0,0,1-.79,1.9,3.53,3.53,0,0,0,.24,3.5L47.43,44,44,47.43l-4.6-3.06a3.54,3.54,0,0,0-3.5-.24,17.66,17.66,0,0,1-1.9.79,3.53,3.53,0,0,0-2.3,2.64L30.65,53h-4.8l-1.08-5.41a3.53,3.53,0,0,0-2.3-2.64,17.73,17.73,0,0,1-1.9-.79,3.53,3.53,0,0,0-3.5.24l-4.6,3.06L9.07,44l3.06-4.6a3.54,3.54,0,0,0,.24-3.5,17.77,17.77,0,0,1-.79-1.9,3.53,3.53,0,0,0-2.64-2.3L3.53,30.65v-4.8l5.41-1.08a3.53,3.53,0,0,0,2.64-2.3,17.66,17.66,0,0,1,.79-1.9,3.53,3.53,0,0,0-.24-3.5l-3.06-4.6,3.4-3.4,4.6,3.06a3.54,3.54,0,0,0,3.5.24,17.57,17.57,0,0,1,1.9-.79,3.53,3.53,0,0,0,2.3-2.64l1.08-5.41h4.8l1.08,5.41A3.53,3.53,0,0,0,34,11.59a17.71,17.71,0,0,1,1.9.79,3.53,3.53,0,0,0,3.5-.24L44,9.07l3.4,3.4-3.06,4.6a3.54,3.54,0,0,0-.24,3.5,17.69,17.69,0,0,1,.79,1.9,3.53,3.53,0,0,0,2.64,2.3L53,25.85v4.8ZM28.25,15.89A12.36,12.36,0,1,0,40.61,28.25,12.36,12.36,0,0,0,28.25,15.89Zm0,23.17A10.81,10.81,0,1,1,39.06,28.25,10.82,10.82,0,0,1,28.25,39.07Zm0-17.88a7.06,7.06,0,1,0,7.06,7.06A7.06,7.06,0,0,0,28.25,21.19Zm0,12.36a5.3,5.3,0,1,1,5.3-5.3A5.3,5.3,0,0,1,28.25,33.55Z"/></g></g></g></g></g></svg>