<svg xmlns="http://www.w3.org/2000/svg" viewBox="0 0 58 58"><defs><style>.cls-1{fill:#fff;fill-rule:evenodd;}</style></defs><title>blog_icon</title><g id="Layer_2" data-name="Layer 2"><g id="Header"><g id="header-nav"><g id="_5" data-name="5"><g id="pen"><path class="cls-1" d="M53.28,4.68A15.49,15.49,0,0,0,42.5,0,11.86,11.86,0,0,0,34,3.4l-8.82,8.89-.08.07,0,0h0L6.38,31.28a7.29,7.29,0,0,0-1.84,3.09L.28,49.79A12.46,12.46,0,0,0,0,51.66,6.35,6.35,0,0,0,6.35,58a12.91,12.91,0,0,0,2.1-.34l15.37-4a7.3,7.3,0,0,0,3.09-1.84L54.57,23.9C59.6,18.86,59,10.42,53.28,4.68ZM27.77,14.87a8.7,8.7,0,0,1,8.32-1.92L19,30a14.44,14.44,0,0,0-5.2-1.08ZM7.55,54.15a8.87,8.87,0,0,1-1.23.23,2.73,2.73,0,0,1-2.7-2.72,9.23,9.23,0,0,1,.18-1l1.91-6.91a8.29,8.29,0,0,1,6.05,2.51,8.28,8.28,0,0,1,2.53,6.15Zm15.88-4.28a3.82,3.82,0,0,1-.65.29l-6.7,1.76a10.12,10.12,0,0,0-3-7,10.33,10.33,0,0,0-6.83-3.08L8,35.33a3.58,3.58,0,0,1,.71-1.24c3.64-2.6,9.23-1.83,13.11,2.05C26,40.25,26.6,46.27,23.43,49.86Zm3.38-13.15a16.38,16.38,0,0,0-2.4-3.13,16.28,16.28,0,0,0-3.7-2.71L38,13.6a12.52,12.52,0,0,1,6.12,5.81ZM43.07,30.3l0,0,0,0L29,44.48c0-.45,0-.89,0-1.35a14.76,14.76,0,0,0-1.3-4.76L44.86,21.23A8.84,8.84,0,0,1,43.07,30.3Zm8.93-9L49,24.41c0-.41,0-.8,0-1.22a15.61,15.61,0,0,0-4.61-9.55A15.48,15.48,0,0,0,33.61,9l3-3A8.24,8.24,0,0,1,42.5,3.63a11.86,11.86,0,0,1,8.22,3.62,11.94,11.94,0,0,1,3.64,7.55A8.3,8.3,0,0,1,52,21.34Z"/></g></g></g></g></g></svg>