<svg xmlns="http://www.w3.org/2000/svg" viewBox="0 0 58 58"><defs><style>.cls-1{fill:#fff;fill-rule:evenodd;}</style></defs><title>contact_icon</title><g id="Layer_2" data-name="Layer 2"><g id="Header"><g id="header-nav"><g id="_6" data-name="6"><g id="paperplane"><path class="cls-1" d="M57.17.29a1.81,1.81,0,0,0-2,0L.81,36.55a1.81,1.81,0,0,0,.33,3.19l14.18,5.67L22,57.09a1.81,1.81,0,0,0,1.55.91h0a1.82,1.82,0,0,0,1.55-.88l3.76-6.28,17.57,7a1.77,1.77,0,0,0,.67.13,1.81,1.81,0,0,0,1.79-1.52L58,2.11A1.81,1.81,0,0,0,57.17.29ZM16.67,42.05l-11-4.39,42-28L17.15,42.35A3.59,3.59,0,0,0,16.67,42.05Zm6.85,10.41-5.05-8.84v0L52.79,6.85Zm22.19,1.21L30.23,47.48a3.63,3.63,0,0,0-1.13-.22l23.84-37Z"/></g></g></g></g></g></svg>