<svg xmlns="http://www.w3.org/2000/svg" viewBox="0 0 43.24 62.9"><defs><style>.cls-1{fill:#d1d5d7;}</style></defs><title>device_icon_gray</title><g id="Layer_2" data-name="Layer 2"><g id="Feature"><g id="_4" data-name="4"><g id="phone"><path class="cls-1" d="M37.34,0H5.9A5.9,5.9,0,0,0,0,5.9V57a5.9,5.9,0,0,0,5.9,5.9H37.34a5.9,5.9,0,0,0,5.9-5.9V5.9A5.9,5.9,0,0,0,37.34,0Zm2,57a2,2,0,0,1-2,2H5.9a2,2,0,0,1-2-2V53.06H39.31Zm0-5.9H3.93V11.8H39.31Zm0-41.27H3.93V5.9a2,2,0,0,1,2-2H37.34a2,2,0,0,1,2,2ZM24.57,5.9h-5.9a1,1,0,1,0,0,2h5.9a1,1,0,1,0,0-2ZM20.64,57h2a1,1,0,0,0,0-2h-2a1,1,0,0,0,0,2Z"/></g></g></g></g></svg>