<svg xmlns="http://www.w3.org/2000/svg" viewBox="0 0 82.4 61.77"><defs><style>.cls-1{fill:#9f449b;fill-rule:evenodd;}</style></defs><title>gem_icon_gray</title><g id="Layer_2" data-name="Layer 2"><g id="Feature"><g id="_2" data-name="2"><g id="diamond"><path class="cls-1" d="M80.89,14.59,67.81,1.51A5.15,5.15,0,0,0,64.16,0H18.23a5.15,5.15,0,0,0-3.64,1.51L1.51,14.59a5.14,5.14,0,0,0-.21,7.06L37.35,60A5.15,5.15,0,0,0,45,60l36-38.39a5.15,5.15,0,0,0-.21-7.06ZM62.36,5.15,57.43,9.26,53.32,5.15ZM62.55,18H50.93l6.34-5.28Zm-7.11-7.11-6.52,5.43-5.71-4.76,7-5.87ZM46.91,18H35.48l5.72-4.76Zm0-12.87L41.2,9.91,35.48,5.15Zm-7.73,6.44-5.71,4.76L27,10.92l5.19-5.2ZM31.46,18H19.84l5.28-5.28ZM29.08,5.15,25,9.26,20,5.15Zm-11.86,1,5.92,4.94L16.2,18h-11ZM7.38,20.6h9.15l16.19,27Zm12.15,0H32.16l6.32,31.59Zm15.26,0H47.61L41.2,52.66Zm9.13,31.59L50.23,20.6H62.87Zm5.76-4.61,16.19-27H75ZM66.19,18l-6.93-6.94,5.92-4.93L77,18Z"/></g></g></g></g></svg>
