<svg xmlns="http://www.w3.org/2000/svg" viewBox="0 0 67.61 59.16"><defs><style>.cls-1{fill:#fff;}</style></defs><title>graduation_hat_icon</title><g id="Layer_2" data-name="Layer 2"><g id="Quote"><g id="icon"><g id="study"><path class="cls-1" d="M67.61,12.68A6.31,6.31,0,0,0,62.7,6.5L35.2.15a6.4,6.4,0,0,0-2.82,0L4.91,6.5a6.34,6.34,0,0,0,0,12.35l5.65,1.3V38c0,5.61,6.42,10.56,23.24,10.56S57,43.64,57,38V20.16l5.65-1.3A6.31,6.31,0,0,0,67.61,12.68ZM52.82,38c0,2.34-6.34,6.34-19,6.34s-19-4-19-6.34V21.13L32.41,25.2a6.42,6.42,0,0,0,1.4.15,6.5,6.5,0,0,0,1.43-.16l17.59-4.06Zm8.93-23.29L34.28,21.07a2.11,2.11,0,0,1-1,0L5.86,14.74a2.11,2.11,0,0,1,0-4.12L33.33,4.28a2.13,2.13,0,0,1,1,0l27.47,6.34a2.11,2.11,0,0,1,0,4.12Zm-.48,8.5v19a2.11,2.11,0,1,0,4.23,0v-19a2.11,2.11,0,0,0-4.23,0Zm2.11,23.24c-2.33,0-4.23,6.12-4.23,8.45a4.23,4.23,0,1,0,8.45,0C67.61,52.6,65.72,46.48,63.38,46.48Z"/></g></g></g></g></svg>