<svg xmlns="http://www.w3.org/2000/svg" viewBox="0 0 70.36 61.5"><defs><style>.cls-1{fill:#9f449b;}</style></defs><title>heart_icon_main</title><g id="Layer_2" data-name="Layer 2"><g id="Feature"><g id="_1" data-name="1"><g id="heart"><path class="cls-1" d="M64.19,6.07a21.18,21.18,0,0,0-29-.63,21.18,21.18,0,0,0-29,.63,20.67,20.67,0,0,0,0,29.47l24.31,24a6.7,6.7,0,0,0,9.41,0l24.31-24A20.67,20.67,0,0,0,64.19,6.07ZM61.05,32.43l-24.31,24a2.23,2.23,0,0,1-3.13,0l-24.31-24a16.34,16.34,0,0,1,0-23.26A16.71,16.71,0,0,1,32.2,8.68l3,2.68,3-2.68a16.71,16.71,0,0,1,22.89.49A16.34,16.34,0,0,1,61.05,32.43ZM20.34,11h0A9.34,9.34,0,0,0,11,20.32a1.1,1.1,0,0,0,2.2,0h0a7.14,7.14,0,0,1,7.14-7.14h0a1.1,1.1,0,1,0,0-2.2Z"/></g></g></g></g></svg>
