<svg xmlns="http://www.w3.org/2000/svg" viewBox="0 0 53.34 60.96"><defs><style>.cls-1{fill:#9f449b;fill-rule:evenodd;}</style></defs><title>mug_icon_gray</title><g id="Layer_2" data-name="Layer 2"><g id="Feature"><g id="_3" data-name="3"><g id="cup"><path class="cls-1" d="M49.74,9.57l-2.31-7A3.81,3.81,0,0,0,43.81,0H9.52A3.81,3.81,0,0,0,5.91,2.6l-2.33,7A3.79,3.79,0,0,0,0,13.33V19a3.81,3.81,0,0,0,3.81,3.81h2a3.57,3.57,0,0,0,0,.42L9.55,57.57A3.81,3.81,0,0,0,13.33,61H40a3.81,3.81,0,0,0,3.79-3.39L47.6,23.28a3.57,3.57,0,0,0,0-.42h2A3.81,3.81,0,0,0,53.34,19V13.33A3.79,3.79,0,0,0,49.74,9.57ZM9.52,3.81H43.81l1.9,5.71H7.62ZM40,57.15H13.33l-.63-5.71H40.64Zm.85-7.62H12.49l-2.12-19H43Zm2.33-21h-33l-.63-5.71H43.81ZM49.53,19H3.81V13.33H49.53Z"/></g></g></g></g></svg>
