<svg xmlns="http://www.w3.org/2000/svg" viewBox="0 0 49.71 53.02"><defs><style>.cls-1{fill:#fff;}</style></defs><title>portfolio_icon</title><g id="Layer_2" data-name="Layer 2"><g id="Header"><g id="header-nav"><g id="_4" data-name="4"><g id="photo"><path class="cls-1" d="M43.08,0H6.63A6.63,6.63,0,0,0,0,6.63V46.4A6.63,6.63,0,0,0,6.63,53H43.08a6.63,6.63,0,0,0,6.63-6.63V6.63A6.63,6.63,0,0,0,43.08,0Zm3.31,46.4a3.32,3.32,0,0,1-3.31,3.31H6.63A3.32,3.32,0,0,1,3.31,46.4V6.63A3.32,3.32,0,0,1,6.63,3.31H43.08a3.32,3.32,0,0,1,3.31,3.31Zm-5-39.77H8.28A1.66,1.66,0,0,0,6.63,8.28V38.11a1.66,1.66,0,0,0,1.66,1.66H41.42a1.66,1.66,0,0,0,1.66-1.66V8.28A1.66,1.66,0,0,0,41.42,6.63ZM8.28,38.11V24.19l6.63-7.62L28.28,31.72l1,1.09,4.58,5.3Zm33.14,0H36l-5.68-6.55,4.45-5,6.63,7.26Zm0-6.84L36,25.42a1.66,1.66,0,0,0-2.49,0L29.24,30.3,16.16,15.47a1.66,1.66,0,0,0-2.49,0L8.28,21.68V8.28H41.42Zm-9.94-9.73a5,5,0,1,0-5-5A5,5,0,0,0,31.48,21.54Zm0-8.29a3.31,3.31,0,1,1-3.31,3.31A3.32,3.32,0,0,1,31.48,13.26Z"/></g></g></g></g></g></svg>