<svg xmlns="http://www.w3.org/2000/svg" viewBox="0 0 61.03 53.4"><defs><style>.cls-1{fill:#fff;}</style></defs><title>services_icon</title><g id="Layer_2" data-name="Layer 2"><g id="Header"><g id="header-nav"><g id="_3" data-name="3"><g id="bubble"><path class="cls-1" d="M30.51,9.54c-11.37,0-21,6.11-21,13.35a1,1,0,1,0,1.91,0c0-6.09,8.91-11.44,19.07-11.44a1,1,0,1,0,0-1.91Zm0-9.54C13.66,0,0,10.25,0,22.88c0,7.87,5.3,14.81,13.36,18.93,0,.05,0,.08,0,.14,0,3.42-2.55,7.1-3.68,9h0a1.73,1.73,0,0,0,1.59,2.41,4.76,4.76,0,0,1,.49,0c6-1,11.57-6.45,12.88-8a40.48,40.48,0,0,0,5.89.44C47.36,45.77,61,35.52,61,22.88S47.36,0,30.51,0Zm0,42a36.91,36.91,0,0,1-5.33-.39,3.72,3.72,0,0,0-.55,0,3.81,3.81,0,0,0-2.95,1.39,25.65,25.65,0,0,1-5.88,4.84,14.92,14.92,0,0,0,1.37-5.59c0-.12,0-.25,0-.35a3.82,3.82,0,0,0-2.08-3.4C8,34.81,3.81,29,3.81,22.88c0-10.51,12-19.07,26.7-19.07s26.7,8.56,26.7,19.07S45.24,42,30.51,42Z"/></g></g></g></g></g></svg>