<svg xmlns="http://www.w3.org/2000/svg" viewBox="0 0 56 56"><defs><style>.cls-1{fill:#fff;fill-rule:evenodd;}</style></defs><title>team_icon</title><g id="Layer_2" data-name="Layer 2"><g id="Header"><g id="header-nav"><g id="_2" data-name="2"><g id="user"><path class="cls-1" d="M54.44,49.59a51.13,51.13,0,0,0-16.23-6.47,39.73,39.73,0,0,0,6.67-14.3c1.32-5.47.81-16.18-4.45-22.86A15.3,15.3,0,0,0,28,0,15.3,15.3,0,0,0,15.57,6c-5.26,6.67-5.77,17.38-4.45,22.86a39.73,39.73,0,0,0,6.67,14.3A51.13,51.13,0,0,0,1.56,49.59,3.5,3.5,0,0,0,3.5,56h49a3.5,3.5,0,0,0,1.94-6.41ZM14.28,18.81C15.24,11.32,19.53,3.5,28,3.5s12.76,7.82,13.72,15.31a29.92,29.92,0,0,1-6.25,22.14l-.57.73c-4.17,4.79-9.61,4.79-13.79,0l-.57-.73A29.91,29.91,0,0,1,14.28,18.81ZM3.5,52.5a47.63,47.63,0,0,1,15-6l4.35-.94A9.24,9.24,0,0,0,28,47.25a9.24,9.24,0,0,0,5.13-1.65l4.35.94a47.72,47.72,0,0,1,15,6Z"/></g></g></g></g></g></svg>